<svg width="16" height="16" viewBox="0 0 16 16" fill="none" xmlns="http://www.w3.org/2000/svg">
<g clip-path="url(#clip0)">
<path d="M9.75358 7.41956H9.64112V6.8932C9.64112 5.91966 8.86855 5.1064 7.90293 5.08904C7.87654 5.08857 7.82382 5.08857 7.79745 5.08904C6.83181 5.1064 6.05925 5.91966 6.05925 6.8932V7.41956H5.94677C5.77345 7.41956 5.63208 7.5984 5.63208 7.81929V10.4593C5.63208 10.6799 5.77345 10.8604 5.94678 10.8604H9.75358C9.9269 10.8604 10.0683 10.6799 10.0683 10.4593V7.81929C10.0683 7.59842 9.92691 7.41956 9.75358 7.41956ZM8.20683 9.13661V9.93432C8.20683 10.0257 8.13036 10.103 8.03894 10.103H7.66145C7.57002 10.103 7.49355 10.0257 7.49355 9.93432V9.13661C7.40489 9.04933 7.35327 8.92865 7.35327 8.79515C7.35327 8.54217 7.54882 8.32479 7.79746 8.31474C7.82381 8.31368 7.87659 8.31368 7.90294 8.31474C8.15158 8.32479 8.34713 8.54217 8.34713 8.79515C8.34711 8.92865 8.29549 9.04933 8.20683 9.13661ZM8.89987 7.41956H7.90293H7.79745H6.80051V6.8932C6.80051 6.31328 7.2718 5.83377 7.85018 5.83377C8.42856 5.83377 8.89988 6.31328 8.89988 6.8932V7.41956H8.89987Z" fill="#49662D"/>
<rect x="6.61353" y="7.56238" width="2.47361" height="3.29815" fill="#49662D"/>
</g>
<circle cx="7.85021" cy="7.97473" r="7.45518" stroke="#49662D" stroke-width="0.48098"/>
<defs>
<clipPath id="clip0">
<rect width="5.77176" height="5.77176" fill="white" transform="matrix(1 0 0 -1 4.96436 10.8605)"/>
</clipPath>
</defs>
</svg>
